<svg width="115" height="34" viewBox="0 0 115 34" fill="none" xmlns="http://www.w3.org/2000/svg">
<g clip-path="url(#clip0_6306_11669)">
<path d="M0 0C2.05667 1.18433 4.11334 2.36865 6.17001 3.55298C7.70631 4.44122 9.24262 5.32946 10.8037 6.21771C10.9772 6.3164 11.0763 6.43977 11.1011 6.63716C11.4975 9.00581 11.894 11.3991 12.2905 13.7678C12.6374 15.791 12.9595 17.8142 13.3064 19.8621C13.3064 19.8868 13.3312 19.8868 13.3807 19.9608C13.3807 13.299 13.3807 6.71118 13.3807 0.0246734C23.2676 5.69956 33.1049 11.3498 42.967 17.0247C33.1049 22.6502 23.2924 28.3004 13.4055 33.9753C13.4055 33.8026 13.3807 33.7039 13.3807 33.6052C13.3807 32.1742 13.3807 30.7184 13.3807 29.2874C13.3807 29.016 13.4551 28.8433 13.6781 28.6705C18.7083 24.9695 23.7632 21.2932 28.7934 17.5922C28.9173 17.4935 29.0412 17.4194 29.1155 17.2714C29.0412 17.3208 28.942 17.3454 28.8677 17.3948C19.3525 22.8723 9.83732 28.3251 0.322129 33.8026C0.223012 33.852 0.148675 33.926 0.0743374 34C0.0495583 34 0.0247791 33.9753 0.0247791 33.9753C0.0247791 33.9013 0.0247791 33.8273 0.0247791 33.7286C0 22.4775 0 11.2511 0 0Z" fill="#DC0032"/>
<path d="M60.4365 9.37582C60.4365 8.24084 60.4365 7.15521 60.4365 6.0449C59.5444 6.0449 58.6524 6.0449 57.7356 6.0449C57.7356 4.58917 57.7356 3.18278 57.7356 1.72705C60.3374 1.72705 62.9144 1.72705 65.541 1.72705C65.541 4.26842 65.541 6.80978 65.541 9.44984C65.6897 9.32647 65.764 9.27712 65.8383 9.2031C67.9693 7.30325 71.3641 7.17988 73.5199 8.9317C74.7093 9.89396 75.3287 11.177 75.5765 12.6574C75.7004 13.3236 75.75 14.0144 75.75 14.6806C75.7748 16.5805 75.7748 18.4556 75.75 20.3555C75.75 21.6632 75.6013 22.9462 75.0562 24.1552C74.1889 26.1784 72.6278 27.19 70.4472 27.4121C68.6632 27.5848 67.1516 27.042 65.8136 25.9317C65.7392 25.8823 65.6649 25.8083 65.541 25.7096C65.541 28.0536 65.541 30.3482 65.541 32.6429C63.8312 32.6429 62.1462 32.6429 60.4365 32.6429C60.4365 30.3729 60.4365 28.103 60.4365 25.759C60.2878 25.8577 60.2135 25.9317 60.1144 26.0057C58.3303 27.4368 56.3231 27.7822 54.1674 27.116C52.185 26.4992 51.1195 25.0188 50.6487 23.0942C50.4505 22.3294 50.3514 21.5398 50.3514 20.7503C50.3018 18.5543 50.3266 16.3337 50.3514 14.1378C50.3514 13.0768 50.5496 12.0159 50.9956 11.0289C51.9372 8.85768 53.9691 7.59933 56.3479 7.69802C57.8842 7.77204 59.2471 8.29019 60.4365 9.37582ZM65.5658 17.6167C65.5658 18.7517 65.6401 19.9114 65.541 21.0464C65.4666 21.9346 65.8631 22.3294 66.5817 22.6008C66.7056 22.6501 66.8295 22.6995 66.9286 22.7488C68.7871 23.3657 70.6207 22.2307 70.6703 20.3802C70.7198 18.579 70.695 16.7532 70.6703 14.952C70.6455 13.6196 69.7287 12.5834 68.4897 12.386C67.4738 12.2133 66.5817 12.5093 65.7888 13.1509C65.6401 13.2742 65.5658 13.3976 65.5658 13.595C65.5658 14.9273 65.5658 16.2844 65.5658 17.6167ZM60.4613 17.6414C60.4613 16.4077 60.4117 15.1494 60.486 13.9157C60.5108 13.2989 60.263 13.0028 59.7922 12.7314C58.3055 11.8432 55.6541 12.2133 55.4806 14.8533C55.3568 16.7779 55.4063 18.7024 55.4806 20.6269C55.5302 21.7619 56.4223 22.6008 57.5125 22.8228C58.5285 23.0202 59.4205 22.7735 60.263 22.1813C60.4117 22.0826 60.486 21.9593 60.486 21.7619C60.4365 20.4048 60.4613 19.0231 60.4613 17.6414Z" fill="#002333"/>
<path d="M83.8775 32.6923C82.1429 32.6923 80.4579 32.6923 78.7729 32.6923C78.7729 24.5254 78.7729 16.3585 78.7729 8.16693C79.0951 8.16693 79.3924 8.16693 79.6898 8.16693C80.1854 8.16693 80.7057 8.1916 81.2013 8.16693C81.5234 8.14225 81.6969 8.26562 81.8951 8.51236C82.2668 9.00583 82.6633 9.49929 83.0597 9.99276C83.1093 9.96809 83.1341 9.94342 83.1589 9.91874C84.4969 8.51236 86.2067 7.89552 88.0899 7.79683C89.3784 7.72281 90.6174 7.87085 91.8068 8.41366C93.6404 9.25256 94.6812 10.7576 95.0776 12.6822C95.2263 13.4224 95.3006 14.1872 95.3254 14.9275C95.3502 16.852 95.3502 18.7765 95.3254 20.7257C95.3254 21.836 95.152 22.9216 94.6812 23.9333C93.7643 25.9318 92.1289 27.0174 89.9979 27.3875C87.8173 27.7823 85.7854 27.3629 83.9518 26.0552C83.927 26.0305 83.9022 26.0305 83.8279 26.0058C83.8775 28.2264 83.8775 30.447 83.8775 32.6923ZM83.8527 17.5922C83.8527 18.6778 83.8527 19.7634 83.8527 20.8491C83.8527 20.9724 83.9022 21.1452 83.9766 21.2439C84.6704 22.0087 85.4881 22.5762 86.504 22.7983C88.5607 23.2917 90.1714 22.1568 90.2209 20.1335C90.2705 18.4064 90.2457 16.6793 90.2209 14.9768C90.1961 13.2497 88.8581 12.164 87.1235 12.3367C85.835 12.4601 84.8438 13.1016 83.9518 13.9899C83.8775 14.0639 83.8279 14.2366 83.8279 14.36C83.8527 15.4209 83.8527 16.5066 83.8527 17.5922Z" fill="#002333"/>
<path d="M115 27.0422C113.29 27.0422 111.63 27.0422 109.896 27.0422C109.896 22.1815 109.896 17.3455 109.896 12.4848C107.864 12.4848 105.857 12.4848 103.825 12.4848C103.825 17.3455 103.825 22.1815 103.825 27.0422C102.09 27.0422 100.405 27.0422 98.7202 27.0422C98.7202 20.7504 98.7202 14.4587 98.7202 8.16699C104.147 8.16699 109.573 8.16699 115.025 8.16699C115 14.4587 115 20.7258 115 27.0422Z" fill="#002333"/>
</g>
<defs>
<clipPath id="clip0_6306_11669">
<rect width="115" height="34" fill="white"/>
</clipPath>
</defs>
</svg>
