<svg width="34" height="36" viewBox="0 0 34 36" fill="none" xmlns="http://www.w3.org/2000/svg">
<path d="M21.1677 35.0181V34.1108H19.1568V29.2726H20.238V33.3421H20.8804V29.2726H21.9617V33.3421H22.2029V35.0192L21.1677 35.0181ZM31.0322 34.1108V29.2726H32.3777C33.2849 29.2726 33.8601 29.4627 33.8601 30.3257V31.1876C33.8601 31.9069 33.2338 32.2458 32.5656 32.2458H32.1364V34.1131L31.0322 34.1108ZM32.1364 31.5253H32.3008C32.6863 31.5253 32.7323 31.2841 32.7323 30.755C32.7323 30.2258 32.6863 29.9453 32.3008 29.9453H32.1128L32.1364 31.5253ZM26.6781 34.1108V31.8126H26.1036V34.1108H24.9994V29.2726H26.1014V31.0428H26.6759V29.2726H27.7779V34.1119L26.6781 34.1108ZM28.854 34.0575V29.9908H28.068V29.2726H30.7449V29.9919H30.0048V34.0586L28.854 34.0575ZM22.4649 34.0575V29.2714H24.8339V29.9908H23.6157V31.0417H24.7648V31.761H23.6157V33.341H24.8339V34.0575H22.4649ZM0.293603 34.0575V19.173H3.07491C3.06901 20.765 3.37809 22.3423 3.98443 23.8143C4.59077 25.2863 5.48261 26.6238 6.60807 27.7498C7.73408 28.876 9.07206 29.7682 10.5447 30.3745C12.0173 30.9809 13.5951 31.2897 15.1877 31.2829V34.0575H0.293603ZM5.87305 19.173H7.71734C7.71734 21.154 8.50428 23.0538 9.90502 24.4545C11.3058 25.8553 13.2056 26.6422 15.1865 26.6422V28.4584H15.1691C12.7055 28.4583 10.3431 27.4804 8.59993 25.7394C6.8568 23.9984 5.87569 21.6366 5.87249 19.173H5.87305ZM9.63121 19.173H11.4985C11.4945 19.6582 11.5871 20.1397 11.7712 20.5886C11.9553 21.0376 12.2273 21.4449 12.5707 21.7877C12.9144 22.1302 13.3227 22.4012 13.772 22.5844C14.2213 22.7676 14.7025 22.8594 15.1877 22.8549V24.7222C13.7154 24.7214 12.3035 24.1369 11.2617 23.0967C10.22 22.0564 9.63354 20.6452 9.63065 19.173H9.63121ZM32.2273 22.9076C32.4797 21.6787 32.6086 20.4276 32.6122 19.173C32.6128 14.5509 30.7773 10.1178 27.5097 6.84873C24.242 3.57969 19.8098 1.74253 15.1877 1.74116V0.544922H33.8141V22.907L32.2273 22.9076ZM26.7758 22.9076C27.1577 21.6996 27.3515 20.44 27.3503 19.173C27.3458 15.9485 26.063 12.8572 23.7829 10.5772C21.5029 8.29708 18.4116 7.01432 15.1871 7.00976V5.09534C17.0359 5.09435 18.8669 5.4577 20.5752 6.16477C22.2835 6.87183 23.8357 7.90863 25.143 9.21596C26.4503 10.5233 27.4871 12.0755 28.1942 13.7838C28.9013 15.4921 29.2646 17.323 29.2636 19.1719C29.2754 20.4326 29.1153 21.689 28.7878 22.9065L26.7758 22.9076ZM21.6974 22.9076C22.3482 21.77 22.6942 20.4836 22.7017 19.173C22.7017 17.1921 21.9148 15.2922 20.514 13.8915C19.1133 12.4907 17.2135 11.7038 15.2325 11.7038V9.88253C17.6964 9.88405 20.059 10.8633 21.8012 12.6055C23.5434 14.3477 24.5226 16.7103 24.5241 19.1741C24.5193 20.4573 24.2597 21.7267 23.7605 22.9087L21.6974 22.9076ZM15.4727 22.9076C16.4302 22.8326 17.3216 22.3903 17.96 21.6726C18.5983 20.955 18.9341 20.0177 18.897 19.058C18.8595 18.0988 18.4527 17.1917 17.7614 16.5258C17.07 15.8599 16.1475 15.487 15.1877 15.4855V13.6177C15.9205 13.6129 16.647 13.7535 17.3254 14.0306C18.0038 14.3078 18.6207 14.7165 19.1405 15.2331C19.6614 15.749 20.0754 16.3628 20.3581 17.0392C20.6408 17.7156 20.7867 18.441 20.7879 19.1741C20.7735 20.5512 20.2636 21.877 19.3515 22.9087L15.4727 22.9076ZM14.3236 20.082C13.6927 19.5112 12.876 19.1888 12.0254 19.1747C12.8751 19.1499 13.6889 18.8263 14.3236 18.2607C14.8961 17.6309 15.2186 16.8135 15.2303 15.9625C15.2557 16.8121 15.5792 17.6257 16.1443 18.2607C16.7752 18.8324 17.5913 19.1569 18.4425 19.1747C17.597 19.2137 16.7885 19.5329 16.1443 20.082C15.5734 20.7133 15.249 21.5292 15.2303 22.3802C15.2102 21.5303 14.889 20.7151 14.3241 20.0797L14.3236 20.082ZM11.618 9.78602V7.01145L10.8527 9.78602H9.77373V4.95338H10.7786V7.68139L11.5484 4.95338H12.6459V9.78602H11.618ZM8.43553 9.78602V7.01145L7.66965 9.78602H6.56768V4.95338H7.59559V7.68139L8.35866 4.95338H9.46288V9.78602H8.43553ZM5.13185 9.78602V7.48781H4.5573V9.78602H3.45308V4.95338H4.5573V6.72361H5.13185V4.95338H6.23383V9.78602H5.13185ZM0.29248 9.73945V4.95338H1.44159C2.39937 4.95338 3.16525 4.95338 3.16525 6.10249C3.16525 6.62648 3.02098 7.10911 2.35335 7.15565V7.19941C3.07212 7.19941 3.16525 7.72857 3.16525 8.34852C3.16525 9.69182 2.64068 9.73833 1.44159 9.73833L0.29248 9.73945ZM1.3967 7.58432V9.06671C1.92586 9.06671 1.97125 8.9764 1.97125 8.25706C1.97125 7.62046 1.86048 7.58376 1.53529 7.58376L1.3967 7.58432ZM1.3967 6.86725C1.92586 6.86725 1.97125 6.77013 1.97125 6.24556C1.97125 5.721 1.87358 5.61939 1.3967 5.61939V6.86725Z" fill="#F3F3F3"/>
</svg>
