<svg width="189" height="32" viewBox="0 0 189 32" fill="none" xmlns="http://www.w3.org/2000/svg">
<path d="M16.1684 17.092C16.4889 16.5579 16.5957 15.9169 16.5957 15.276C16.5957 14.7419 16.4889 14.1009 16.1684 13.5668L12.75 7.69141L0.251465 29.3769L1.64019 31.5134H7.83603L16.1684 17.092Z" fill="#F3F3F3"/>
<path d="M22.2571 20.2967C22.5776 20.8309 23.0049 21.2582 23.539 21.4718C24.0732 21.7923 24.6073 21.8991 25.1414 22.0059H32.085L19.907 0.961426H16.7023L13.9248 5.76855L22.2571 20.2967Z" fill="#F3F3F3"/>
<path d="M33.2605 23.9287H16.0617C15.6344 24.0355 15.1003 24.1424 14.673 24.356C14.2457 24.6765 13.8184 24.997 13.3911 25.4243L9.97266 31.4065H34.8629L36.2516 29.27L33.2605 23.9287Z" fill="#F3F3F3"/>
<path d="M83.9062 24.4813C83.9062 21.5127 85.5731 17.6115 90.2738 17.6115C91.5178 17.5535 92.7422 17.9348 93.7339 18.6882C94.7256 19.4417 95.421 20.52 95.6987 21.7341L93.2424 22.3865C93.1604 21.6861 92.8161 21.042 92.2789 20.5852C91.7416 20.1284 91.0512 19.8926 90.3467 19.9243C88.1776 19.9243 86.5831 21.5907 86.5831 24.5568C86.5831 26.3644 87.3094 29.3302 90.2754 29.3302C91.0358 29.3 91.7657 29.0234 92.3535 28.5402C92.9414 28.057 93.355 27.3952 93.5318 26.655L95.9889 27.5993C95.5714 28.7963 94.7884 29.8309 93.7498 30.5579C92.7112 31.2849 91.4701 31.6673 90.2025 31.6497C87.0209 31.6429 83.9062 29.474 83.9062 24.4813ZM70.4541 24.4813C70.4541 21.5127 72.1176 17.6115 76.8175 17.6115C78.0616 17.5537 79.2866 17.9348 80.2784 18.6882C81.2702 19.4416 81.9652 20.52 82.2433 21.7341L79.7861 22.3865C79.7041 21.6861 79.3598 21.042 78.8226 20.5852C78.2853 20.1284 77.5949 19.8926 76.8904 19.9243C74.7213 19.9243 73.131 21.5907 73.131 24.5568C73.131 26.3644 73.8531 29.3302 76.8175 29.3302C77.5779 29.3 78.3068 29.0234 78.8947 28.5402C79.4826 28.057 79.8971 27.3952 80.0738 26.655L82.5309 27.5993C82.1141 28.7968 81.3306 29.8325 80.2918 30.5596C79.253 31.2867 78.0124 31.6681 76.7445 31.6497C73.5612 31.6429 70.4541 29.474 70.4541 24.4813ZM56.1257 24.5551C56.0561 20.7174 58.5869 17.5343 62.4924 17.5343C66.5439 17.5343 68.9329 20.8635 68.9329 24.4813C68.9329 27.5187 67.2661 31.5709 62.4924 31.5709C58.5877 31.5701 56.1257 28.3138 56.1257 24.5551ZM58.587 24.5551C58.66 26.6513 59.6697 29.3285 62.4924 29.3285C64.5199 29.3285 66.3299 27.808 66.3299 24.7698C66.3299 22.3851 65.0961 19.9227 62.4194 19.9227C60.2503 19.9227 58.587 21.6586 58.587 24.5551ZM44.8389 31.3546V17.8999H50.05C52.7979 17.8999 54.8233 19.6343 54.8233 22.3848C54.8233 24.8417 53.4489 26.7992 49.9032 26.7992H47.3731V31.3562L44.8389 31.3546ZM47.3731 24.6994H49.5426C51.3511 24.6994 52.2194 23.9005 52.2194 22.311C52.2194 20.1427 50.4839 20.0703 49.2508 20.0703H47.3731V24.6994ZM120.296 31.2824V22.5307L114.29 29.6941V31.2841H111.759V17.9016H114.29V26.5779L120.296 19.4161V17.8999H122.83V31.2824H120.296ZM106.263 31.2824V22.5307L100.257 29.6941V31.2841H97.7265V17.9016H100.257V26.5779L106.263 19.4161V17.8999H108.794V31.2824H106.263ZM153.864 7.84001C153.794 4.00748 156.325 0.824219 160.23 0.824219C164.282 0.824219 166.671 4.1534 166.671 7.77124C166.671 10.8086 165.008 14.8592 160.23 14.8592C156.253 14.8617 153.865 11.6047 153.865 7.84168L153.864 7.84001ZM156.398 7.91213C156.325 9.86747 157.342 12.6167 160.23 12.6167C162.258 12.6167 164.14 11.0971 164.14 8.05805C164.14 5.66991 162.907 3.2109 160.23 3.2109C158.062 3.21347 156.399 4.94946 156.399 7.91381L156.398 7.91213ZM113.133 7.84001C113.06 4.00748 115.668 0.824219 119.501 0.824219C123.552 0.824219 125.941 4.1534 125.941 7.77124C125.941 10.8086 124.275 14.8592 119.501 14.8592C115.597 14.8617 113.134 11.6047 113.134 7.84168L113.133 7.84001ZM115.595 7.91213C115.668 9.86747 116.678 12.6167 119.501 12.6167C121.524 12.6167 123.333 11.0971 123.333 8.05805C123.333 5.66991 122.105 3.2109 119.428 3.2109C117.26 3.21347 115.596 4.94946 115.596 7.91381L115.595 7.91213ZM169.059 14.6411V1.18482H174.265C177.013 1.18482 179.04 2.92003 179.04 5.66969C179.04 8.13168 177.665 10.0824 174.119 10.0824H171.589V14.6411H169.059ZM171.516 7.98593H173.686C175.494 7.98593 176.363 7.11667 176.363 5.59757C176.363 3.42755 174.627 3.35514 173.397 3.35514H171.516V7.98593ZM101.847 14.6411V1.18482H107.058C109.806 1.18482 111.831 2.92003 111.831 5.66969C111.831 8.13168 110.457 10.0824 106.912 10.0824H104.381V14.6411H101.847ZM104.381 7.98593H106.55C108.359 7.98593 109.226 7.11667 109.226 5.59757C109.226 3.42755 107.492 3.35514 106.263 3.35514H104.381V7.98593ZM88.1026 14.6411V1.18482H98.8091V14.5673H96.279V3.49938H90.6335V14.6411H88.1026ZM180.846 14.5673V1.18482H188.88V3.42558H183.383V14.5673H180.846ZM146.195 14.5673V3.42558H142.574V1.18482H152.417V3.42558H148.724V14.5673H146.195ZM138.234 14.5673C138.234 14.2066 138.453 3.56814 138.453 3.56814L135.558 14.5673H133.315L130.424 3.56814C130.424 3.56814 130.638 14.1319 130.638 14.5673H128.181V1.18482H131.798L134.402 11.0972L137.006 1.18482H140.624V14.5673H138.234ZM82.6005 14.5673V8.48909H76.8871V14.5673H74.3562V1.18482H76.8871V6.25001H82.6005V1.18482H85.1314V14.5673H82.6005ZM68.7836 14.5673V5.80722L62.7809 12.9723V14.564H60.2474V1.18147H62.7809V9.86273L68.7836 2.70102V1.18147H71.3145V14.564L68.7836 14.5673ZM54.82 14.5673C54.82 14.2066 55.0388 3.56814 55.0388 3.56814L52.144 14.5673H49.9007L47.01 3.56814C47.01 3.56814 47.2255 14.1319 47.2255 14.5673H44.8414V1.18482H48.4591L51.0664 11.0972L53.6702 1.18482H57.288V14.5673H54.82Z" fill="#F3F3F3"/>
</svg>
