<svg width="36" height="36" viewBox="0 0 36 36" fill="none" xmlns="http://www.w3.org/2000/svg">
<g clip-path="url(#clip0_4797_51088)">
<path d="M0 35.5C12.0122 35.5 23.997 35.5 36 35.5C36 23.8181 36 12.1728 36 0.5C23.9878 0.5 12.0122 0.5 0 0.5C0 12.1819 0 23.8272 0 35.5ZM35.0325 33.7568C35.0325 34.5235 34.9959 34.5508 34.2292 34.5508C29.5832 34.5508 24.9371 34.5508 20.3002 34.5508C15.6815 34.5508 5.77789 34.5965 5.51318 34.5508C5.61359 34.3136 6.88235 32.0593 7.36613 31.2471C7.8499 30.4348 8.33367 29.6226 8.85396 28.8377C9.34686 28.1076 9.85801 27.3774 10.4239 26.7021C10.926 26.0997 11.6105 25.7347 12.3408 25.4153C12.9706 25.1415 13.573 25.1688 14.1937 25.1688C20.8114 25.1506 27.429 25.1597 34.0467 25.1597C34.211 25.1597 34.3844 25.1871 34.5487 25.178C34.8682 25.1597 34.9686 25.3605 35.0233 25.6069C35.0507 25.7529 35.0507 25.9081 35.0507 26.0632C35.0325 28.6278 35.0416 31.1923 35.0325 33.7568ZM35.0142 1.47653C35.0233 1.64993 35.0416 1.79596 35.0416 1.94198C35.0416 8.31226 35.0051 22.1662 35.0051 22.1662C35.0051 22.1662 28.9168 22.1206 27.3012 22.0841C26.288 22.0567 25.4391 21.5913 24.5994 21.0254C24.0426 20.6512 23.5406 20.2497 23.1663 19.7021C22.783 19.1545 22.4635 18.5522 22.1075 17.9863C21.7698 17.4296 21.4047 16.882 21.0761 16.3162C20.7383 15.7412 20.4371 15.148 20.0994 14.573C19.8712 14.1806 19.5882 13.8155 19.36 13.4322C19.0588 12.9211 18.7759 12.4009 18.4838 11.8807C18.1643 11.3057 17.854 10.7216 17.5436 10.1467C17.2606 9.63559 16.9868 9.11538 16.6947 8.61343C16.3205 7.97458 15.9189 7.35398 15.5446 6.706C15.0791 5.89374 14.6318 5.05411 14.1663 4.24185C13.7099 3.44785 13.2444 2.65385 12.788 1.85984C12.7333 1.75945 12.6968 1.63168 12.6511 1.47653C20.1085 1.47653 27.5659 1.47653 35.0142 1.47653ZM0.958418 1.97849C0.958418 1.82334 0.958418 1.67731 0.958418 1.44915C1.19574 1.44915 1.3783 1.44915 1.55172 1.44915C3.81542 1.44915 6.06998 1.44915 8.33367 1.44915C9.13692 1.44915 9.27383 1.6043 9.62069 2.29791C10.0862 3.22881 10.6521 4.11408 11.1724 5.02673C11.5193 5.62907 11.8479 6.24967 12.1856 6.85202C12.5051 7.43611 12.8519 8.01108 13.1531 8.59518C13.427 9.13364 13.646 9.69948 13.929 10.2288C14.4128 11.1232 14.2028 12.0632 14.1207 12.9668C14.0659 13.5782 13.7008 14.1714 13.4361 14.7555C13.2353 15.2027 12.998 15.6317 12.7606 16.0515C12.4138 16.663 12.0396 17.2562 11.6927 17.8585C11.3732 18.4153 11.072 18.9902 10.7525 19.5469C10.4148 20.131 10.0497 20.706 9.7211 21.2901C9.40162 21.8559 9.10953 22.44 8.79006 22.9967C8.33367 23.7725 7.84077 24.53 7.40264 25.3149C6.87322 26.2458 6.39858 27.2132 5.86917 28.1441C5.5497 28.7008 5.17546 29.2301 4.84686 29.7868C4.3357 30.6538 3.86105 31.5391 3.34077 32.397C2.99391 32.972 2.04462 34.3409 1.94422 34.4231C1.65213 34.6512 1.25963 34.6147 0.976673 34.6056C0.885396 34.5965 0.958418 12.5561 0.958418 1.97849Z" fill="#F3F3F3"/>
</g>
<defs>
<clipPath id="clip0_4797_51088">
<rect width="36" height="35" fill="white" transform="translate(0 0.5)"/>
</clipPath>
</defs>
</svg>
