<svg width="236" height="37" viewBox="0 0 236 37" fill="none" xmlns="http://www.w3.org/2000/svg">
<g clip-path="url(#clip0_107_13865)">
<path d="M0 35.5C12.0122 35.5 23.997 35.5 36 35.5C36 23.8181 36 12.1728 36 0.5C23.9878 0.5 12.0122 0.5 0 0.5C0 12.1819 0 23.8272 0 35.5ZM35.0325 33.7568C35.0325 34.5235 34.9959 34.5508 34.2292 34.5508C29.5832 34.5508 24.9371 34.5508 20.3002 34.5508C15.6815 34.5508 5.77789 34.5965 5.51318 34.5508C5.61359 34.3136 6.88235 32.0593 7.36613 31.2471C7.8499 30.4348 8.33367 29.6226 8.85396 28.8377C9.34686 28.1076 9.85801 27.3774 10.4239 26.7021C10.926 26.0997 11.6105 25.7347 12.3408 25.4153C12.9706 25.1415 13.573 25.1688 14.1937 25.1688C20.8114 25.1506 27.429 25.1597 34.0467 25.1597C34.211 25.1597 34.3844 25.1871 34.5487 25.178C34.8682 25.1597 34.9686 25.3605 35.0233 25.6069C35.0507 25.7529 35.0507 25.9081 35.0507 26.0632C35.0325 28.6278 35.0416 31.1923 35.0325 33.7568ZM35.0142 1.47653C35.0233 1.64993 35.0416 1.79596 35.0416 1.94198C35.0416 8.31226 35.0051 22.1662 35.0051 22.1662C35.0051 22.1662 28.9168 22.1206 27.3012 22.0841C26.288 22.0567 25.4391 21.5913 24.5994 21.0254C24.0426 20.6512 23.5406 20.2497 23.1663 19.7021C22.783 19.1545 22.4635 18.5522 22.1075 17.9863C21.7698 17.4296 21.4047 16.882 21.0761 16.3162C20.7383 15.7412 20.4371 15.148 20.0994 14.573C19.8712 14.1806 19.5882 13.8155 19.36 13.4322C19.0588 12.9211 18.7759 12.4009 18.4838 11.8807C18.1643 11.3057 17.854 10.7216 17.5436 10.1467C17.2606 9.63559 16.9868 9.11538 16.6947 8.61343C16.3205 7.97458 15.9189 7.35398 15.5446 6.706C15.0791 5.89374 14.6318 5.05411 14.1663 4.24185C13.7099 3.44785 13.2444 2.65385 12.788 1.85984C12.7333 1.75945 12.6968 1.63168 12.6511 1.47653C20.1085 1.47653 27.5659 1.47653 35.0142 1.47653ZM0.958418 1.97849C0.958418 1.82334 0.958418 1.67731 0.958418 1.44915C1.19574 1.44915 1.3783 1.44915 1.55172 1.44915C3.81542 1.44915 6.06998 1.44915 8.33367 1.44915C9.13692 1.44915 9.27383 1.6043 9.62069 2.29791C10.0862 3.22881 10.6521 4.11408 11.1724 5.02673C11.5193 5.62907 11.8479 6.24967 12.1856 6.85202C12.5051 7.43611 12.8519 8.01108 13.1531 8.59518C13.427 9.13364 13.646 9.69948 13.929 10.2288C14.4128 11.1232 14.2028 12.0632 14.1207 12.9668C14.0659 13.5782 13.7008 14.1714 13.4361 14.7555C13.2353 15.2027 12.998 15.6317 12.7606 16.0515C12.4138 16.663 12.0396 17.2562 11.6927 17.8585C11.3732 18.4153 11.072 18.9902 10.7525 19.5469C10.4148 20.131 10.0497 20.706 9.7211 21.2901C9.40162 21.8559 9.10953 22.44 8.79006 22.9967C8.33367 23.7725 7.84077 24.53 7.40264 25.3149C6.87322 26.2458 6.39858 27.2132 5.86917 28.1441C5.5497 28.7008 5.17546 29.2301 4.84686 29.7868C4.3357 30.6538 3.86105 31.5391 3.34077 32.397C2.99391 32.972 2.04462 34.3409 1.94422 34.4231C1.65213 34.6512 1.25963 34.6147 0.976673 34.6056C0.885396 34.5965 0.958418 12.5561 0.958418 1.97849Z" fill="#F3F3F3"/>
</g>
<path d="M49.792 3.02832V9H48.8887V2.24219H53.0098V3.02832H49.792ZM58.8936 5.62109C58.8936 6.83529 58.6641 7.72559 58.2051 8.29199C57.7493 8.8584 57.0625 9.1416 56.1445 9.1416C55.2135 9.1416 54.5218 8.85352 54.0693 8.27734C53.6201 7.70117 53.3955 6.81576 53.3955 5.62109C53.3955 4.4362 53.6185 3.55404 54.0645 2.97461C54.5104 2.39193 55.2038 2.10059 56.1445 2.10059C57.0723 2.10059 57.7624 2.38542 58.2148 2.95508C58.6673 3.52474 58.8936 4.41341 58.8936 5.62109ZM57.9463 5.62109C57.9463 4.68685 57.8047 4 57.5215 3.56055C57.2415 3.12109 56.7826 2.90137 56.1445 2.90137C55.5065 2.90137 55.0459 3.12109 54.7627 3.56055C54.4827 4 54.3428 4.68685 54.3428 5.62109C54.3428 6.56185 54.4844 7.25033 54.7676 7.68652C55.054 8.12272 55.513 8.34082 56.1445 8.34082C56.7728 8.34082 57.2301 8.12435 57.5166 7.69141C57.8031 7.25846 57.9463 6.56836 57.9463 5.62109ZM65.5439 7.81836C65.3291 8.16341 65.1094 8.42546 64.8848 8.60449C64.6634 8.78027 64.4046 8.91374 64.1084 9.00488C63.8122 9.09603 63.4639 9.1416 63.0635 9.1416C62.0511 9.1416 61.304 8.85026 60.8223 8.26758C60.3438 7.68164 60.1045 6.79948 60.1045 5.62109C60.1045 4.44596 60.3421 3.56543 60.8174 2.97949C61.2959 2.39355 62.0316 2.10059 63.0244 2.10059C63.4183 2.10059 63.7699 2.14941 64.0791 2.24707C64.3883 2.34473 64.6488 2.47982 64.8604 2.65234C65.0752 2.82161 65.2705 3.06087 65.4463 3.37012L64.7041 3.8584C64.5609 3.61751 64.416 3.43522 64.2695 3.31152C64.123 3.18457 63.9473 3.08529 63.7422 3.01367C63.5371 2.9388 63.2979 2.90137 63.0244 2.90137C62.3473 2.90137 61.8493 3.1276 61.5303 3.58008C61.2145 4.0293 61.0566 4.70964 61.0566 5.62109C61.0566 6.51953 61.2129 7.19824 61.5254 7.65723C61.8379 8.11296 62.3408 8.34082 63.0342 8.34082C63.4183 8.34082 63.752 8.26595 64.0352 8.11621C64.3184 7.96322 64.5723 7.70117 64.7969 7.33008L65.5439 7.81836ZM68.9277 6.28027L70.6904 2.24219H71.6182L69.0889 7.94043C68.9098 8.35384 68.6771 8.6582 68.3906 8.85352C68.1074 9.04557 67.7298 9.1416 67.2578 9.1416C66.9421 9.1416 66.6133 9.08464 66.2715 8.9707L66.5498 8.21875C66.6507 8.26758 66.7744 8.30501 66.9209 8.33105C67.0674 8.3571 67.1976 8.37012 67.3115 8.37012C67.7835 8.37012 68.1123 8.13737 68.2979 7.67188L68.4297 7.34961L66.1787 2.24219H67.1504L68.9277 6.28027ZM71.2959 10.2793V8.20898H71.8623C72.0869 7.7793 72.2936 7.2373 72.4824 6.58301C72.6745 5.92871 72.8226 5.24023 72.9268 4.51758C73.0309 3.79492 73.0863 3.03646 73.0928 2.24219H76.623V8.20898H77.4434V10.2793H76.5645V9H72.1748V10.2793H71.2959ZM75.7246 3.02832H73.9717C73.9229 3.9821 73.7878 4.92773 73.5664 5.86523C73.3483 6.80273 73.0749 7.58398 72.7461 8.20898H75.7246V3.02832ZM78.1318 9L80.4414 2.24219H81.6133L83.9229 9H82.9707L82.3848 7.24219H79.6309L79.0547 9H78.1318ZM79.9043 6.42188H82.1016L81.0029 3.13086L79.9043 6.42188ZM89.46 4.40039C89.46 5.21419 89.2679 5.80339 88.8838 6.16797C88.5029 6.5293 87.8828 6.70996 87.0234 6.70996H85.9639V9H85.0605V2.24219H87.0625C87.9056 2.24219 88.516 2.41634 88.8936 2.76465C89.2712 3.11296 89.46 3.6582 89.46 4.40039ZM88.5127 4.41992C88.5127 3.94792 88.3955 3.60286 88.1611 3.38477C87.9268 3.16667 87.5264 3.05762 86.96 3.05762H85.9639V5.88965H86.833C87.3083 5.88965 87.6549 5.84408 87.873 5.75293C88.0944 5.65853 88.2555 5.50879 88.3564 5.30371C88.4606 5.09538 88.5127 4.80078 88.5127 4.41992ZM96.0127 7.81836C95.7979 8.16341 95.5781 8.42546 95.3535 8.60449C95.1322 8.78027 94.8734 8.91374 94.5771 9.00488C94.2809 9.09603 93.9326 9.1416 93.5322 9.1416C92.5199 9.1416 91.7728 8.85026 91.291 8.26758C90.8125 7.68164 90.5732 6.79948 90.5732 5.62109C90.5732 4.44596 90.8109 3.56543 91.2861 2.97949C91.7646 2.39355 92.5003 2.10059 93.4932 2.10059C93.887 2.10059 94.2386 2.14941 94.5479 2.24707C94.8571 2.34473 95.1175 2.47982 95.3291 2.65234C95.5439 2.82161 95.7393 3.06087 95.915 3.37012L95.1729 3.8584C95.0296 3.61751 94.8848 3.43522 94.7383 3.31152C94.5918 3.18457 94.416 3.08529 94.2109 3.01367C94.0059 2.9388 93.7666 2.90137 93.4932 2.90137C92.8161 2.90137 92.318 3.1276 91.999 3.58008C91.6833 4.0293 91.5254 4.70964 91.5254 5.62109C91.5254 6.51953 91.6816 7.19824 91.9941 7.65723C92.3066 8.11296 92.8096 8.34082 93.5029 8.34082C93.887 8.34082 94.2207 8.26595 94.5039 8.11621C94.7871 7.96322 95.041 7.70117 95.2656 7.33008L96.0127 7.81836ZM99.7383 3.05762V9H98.8398V3.05762H96.5986V2.24219H101.979V3.05762H99.7383ZM107.829 7.01758C107.829 7.71094 107.608 8.21549 107.165 8.53125C106.722 8.84375 106.091 9 105.271 9H103.068V2.24219H105.07C105.897 2.24219 106.493 2.361 106.857 2.59863C107.225 2.83301 107.409 3.22689 107.409 3.78027C107.409 4.23275 107.308 4.5778 107.106 4.81543C106.908 5.05306 106.659 5.21745 106.359 5.30859C106.805 5.37044 107.162 5.53483 107.429 5.80176C107.696 6.06868 107.829 6.47396 107.829 7.01758ZM106.481 3.98047C106.481 3.63542 106.374 3.3929 106.159 3.25293C105.944 3.1097 105.562 3.03809 105.012 3.03809H103.972V5.0498H104.968C105.508 5.0498 105.896 4.96354 106.13 4.79102C106.364 4.61849 106.481 4.34831 106.481 3.98047ZM106.892 6.97852C106.892 6.69857 106.836 6.47884 106.726 6.31934C106.618 6.15658 106.451 6.03776 106.223 5.96289C105.995 5.88802 105.627 5.85059 105.119 5.85059H103.972V8.17969H104.89C105.463 8.17969 105.878 8.14225 106.135 8.06738C106.392 7.98926 106.582 7.86393 106.706 7.69141C106.83 7.51562 106.892 7.27799 106.892 6.97852ZM109.279 9V2.24219H113.41V3.05762H110.183V5.03027H112.941V5.85059H110.183V8.17969H113.41V9H109.279ZM118.894 9V5.90918H115.817V9H114.914V2.24219H115.817V5.08887H118.894V2.24219H119.797V9H118.894ZM125.554 9V5.90918H122.478V9H121.574V2.24219H122.478V5.08887H125.554V2.24219H126.457V9H125.554ZM127.595 9L129.904 2.24219H131.076L133.386 9H132.434L131.848 7.24219H129.094L128.518 9H127.595ZM129.367 6.42188H131.564L130.466 3.13086L129.367 6.42188ZM133.923 9L135.754 6.09961C135.256 5.99219 134.895 5.77734 134.67 5.45508C134.445 5.13281 134.333 4.69499 134.333 4.1416C134.333 3.49707 134.515 3.02018 134.88 2.71094C135.244 2.39844 135.847 2.24219 136.687 2.24219H138.786V9H137.883V6.24121H136.706L134.982 9H133.923ZM135.266 4.20996C135.266 4.68522 135.378 5.00911 135.603 5.18164C135.83 5.35417 136.215 5.44043 136.755 5.44043H137.883V3.03809H136.696C136.195 3.03809 135.83 3.12272 135.603 3.29199C135.378 3.45801 135.266 3.764 135.266 4.20996ZM143.273 9V2.24219H144.133V7.81836L146.984 2.24219H148.283V9H147.424V3.16992L144.406 9H143.273ZM154.05 9V5.90918H150.974V9H150.07V2.24219H150.974V5.08887H154.05V2.24219H154.953V9H154.05ZM159.123 9.22949V8.26758C158.143 8.22201 157.414 7.98926 156.936 7.56934C156.46 7.14941 156.223 6.49674 156.223 5.61133C156.223 4.72266 156.462 4.06673 156.94 3.64355C157.422 3.22038 158.15 2.98275 159.123 2.93066V1.99805H159.924V2.93066C160.904 2.97624 161.628 3.21061 162.097 3.63379C162.565 4.05697 162.8 4.71615 162.8 5.61133C162.8 6.49674 162.562 7.14941 162.087 7.56934C161.612 7.98926 160.891 8.22201 159.924 8.26758V9.22949H159.123ZM157.15 5.61133C157.15 6.2168 157.299 6.67741 157.595 6.99316C157.894 7.30566 158.404 7.48145 159.123 7.52051V3.67773C158.439 3.72005 157.94 3.88932 157.624 4.18555C157.308 4.47852 157.15 4.95378 157.15 5.61133ZM161.882 5.61133C161.882 5.0026 161.732 4.54036 161.433 4.22461C161.133 3.90885 160.63 3.72656 159.924 3.67773V7.52051C160.63 7.48145 161.133 7.30566 161.433 6.99316C161.732 6.67741 161.882 6.2168 161.882 5.61133ZM169.265 5.62109C169.265 6.83529 169.035 7.72559 168.576 8.29199C168.12 8.8584 167.434 9.1416 166.516 9.1416C165.585 9.1416 164.893 8.85352 164.44 8.27734C163.991 7.70117 163.767 6.81576 163.767 5.62109C163.767 4.4362 163.99 3.55404 164.436 2.97461C164.882 2.39193 165.575 2.10059 166.516 2.10059C167.443 2.10059 168.133 2.38542 168.586 2.95508C169.038 3.52474 169.265 4.41341 169.265 5.62109ZM168.317 5.62109C168.317 4.68685 168.176 4 167.893 3.56055C167.613 3.12109 167.154 2.90137 166.516 2.90137C165.878 2.90137 165.417 3.12109 165.134 3.56055C164.854 4 164.714 4.68685 164.714 5.62109C164.714 6.56185 164.855 7.25033 165.139 7.68652C165.425 8.12272 165.884 8.34082 166.516 8.34082C167.144 8.34082 167.601 8.12435 167.888 7.69141C168.174 7.25846 168.317 6.56836 168.317 5.62109ZM175.134 4.40039C175.134 5.21419 174.942 5.80339 174.558 6.16797C174.177 6.5293 173.557 6.70996 172.697 6.70996H171.638V9H170.734V2.24219H172.736C173.579 2.24219 174.19 2.41634 174.567 2.76465C174.945 3.11296 175.134 3.6582 175.134 4.40039ZM174.187 4.41992C174.187 3.94792 174.069 3.60286 173.835 3.38477C173.601 3.16667 173.2 3.05762 172.634 3.05762H171.638V5.88965H172.507C172.982 5.88965 173.329 5.84408 173.547 5.75293C173.768 5.65853 173.929 5.50879 174.03 5.30371C174.134 5.09538 174.187 4.80078 174.187 4.41992ZM181.647 9V3.39941L179.777 7.15918H179.216L177.365 3.39941V9H176.506V2.24219H177.727L179.519 5.91895L181.325 2.24219H182.507V9H181.647ZM183.649 9L185.959 2.24219H187.131L189.44 9H188.488L187.902 7.24219H185.148L184.572 9H183.649ZM185.422 6.42188H187.619L186.521 3.13086L185.422 6.42188ZM190.578 9V2.24219H191.481V8.17969H194.421V2.24219H195.31V8.20898H196.13V10.2793H195.251V9H190.578ZM197.248 9V2.24219H198.107V7.81836L200.959 2.24219H202.258V9H201.398V3.16992L198.381 9H197.248ZM209.235 5.62109C209.235 6.83529 209.006 7.72559 208.547 8.29199C208.091 8.8584 207.404 9.1416 206.486 9.1416C205.555 9.1416 204.864 8.85352 204.411 8.27734C203.962 7.70117 203.737 6.81576 203.737 5.62109C203.737 4.4362 203.96 3.55404 204.406 2.97461C204.852 2.39193 205.546 2.10059 206.486 2.10059C207.414 2.10059 208.104 2.38542 208.557 2.95508C209.009 3.52474 209.235 4.41341 209.235 5.62109ZM208.288 5.62109C208.288 4.68685 208.146 4 207.863 3.56055C207.583 3.12109 207.124 2.90137 206.486 2.90137C205.848 2.90137 205.388 3.12109 205.104 3.56055C204.825 4 204.685 4.68685 204.685 5.62109C204.685 6.56185 204.826 7.25033 205.109 7.68652C205.396 8.12272 205.855 8.34082 206.486 8.34082C207.115 8.34082 207.572 8.12435 207.858 7.69141C208.145 7.25846 208.288 6.56836 208.288 5.62109ZM214.685 9V5.90918H211.608V9H210.705V2.24219H211.608V5.08887H214.685V2.24219H215.588V9H214.685ZM221.345 9V5.90918H218.269V9H217.365V2.24219H218.269V5.08887H221.345V2.24219H222.248V9H221.345ZM223.386 9L225.695 2.24219H226.867L229.177 9H228.225L227.639 7.24219H224.885L224.309 9H223.386ZM225.158 6.42188H227.355L226.257 3.13086L225.158 6.42188ZM229.714 9L231.545 6.09961C231.047 5.99219 230.686 5.77734 230.461 5.45508C230.236 5.13281 230.124 4.69499 230.124 4.1416C230.124 3.49707 230.306 3.02018 230.671 2.71094C231.035 2.39844 231.638 2.24219 232.478 2.24219H234.577V9H233.674V6.24121H232.497L230.773 9H229.714ZM231.057 4.20996C231.057 4.68522 231.169 5.00911 231.394 5.18164C231.621 5.35417 232.006 5.44043 232.546 5.44043H233.674V3.03809H232.487C231.986 3.03809 231.621 3.12272 231.394 3.29199C231.169 3.45801 231.057 3.764 231.057 4.20996ZM54.0693 20.8184C53.8545 21.1634 53.6348 21.4255 53.4102 21.6045C53.1888 21.7803 52.93 21.9137 52.6338 22.0049C52.3376 22.096 51.9893 22.1416 51.5889 22.1416C50.5765 22.1416 49.8294 21.8503 49.3477 21.2676C48.8691 20.6816 48.6299 19.7995 48.6299 18.6211C48.6299 17.446 48.8675 16.5654 49.3428 15.9795C49.8213 15.3936 50.557 15.1006 51.5498 15.1006C51.9437 15.1006 52.2952 15.1494 52.6045 15.2471C52.9137 15.3447 53.1742 15.4798 53.3857 15.6523C53.6006 15.8216 53.7959 16.0609 53.9717 16.3701L53.2295 16.8584C53.0863 16.6175 52.9414 16.4352 52.7949 16.3115C52.6484 16.1846 52.4727 16.0853 52.2676 16.0137C52.0625 15.9388 51.8232 15.9014 51.5498 15.9014C50.8727 15.9014 50.3747 16.1276 50.0557 16.5801C49.7399 17.0293 49.582 17.7096 49.582 18.6211C49.582 19.5195 49.7383 20.1982 50.0508 20.6572C50.3633 21.113 50.8662 21.3408 51.5596 21.3408C51.9437 21.3408 52.2773 21.266 52.5605 21.1162C52.8438 20.9632 53.0977 20.7012 53.3223 20.3301L54.0693 20.8184ZM55.3438 22V15.2422H56.2031V20.8184L59.0547 15.2422H60.3535V22H59.4941V16.1699L56.4766 22H55.3438ZM67.3213 20.8184C67.1064 21.1634 66.8867 21.4255 66.6621 21.6045C66.4408 21.7803 66.182 21.9137 65.8857 22.0049C65.5895 22.096 65.2412 22.1416 64.8408 22.1416C63.8285 22.1416 63.0814 21.8503 62.5996 21.2676C62.1211 20.6816 61.8818 19.7995 61.8818 18.6211C61.8818 17.446 62.1195 16.5654 62.5947 15.9795C63.0732 15.3936 63.8089 15.1006 64.8018 15.1006C65.1956 15.1006 65.5472 15.1494 65.8564 15.2471C66.1657 15.3447 66.4261 15.4798 66.6377 15.6523C66.8525 15.8216 67.0479 16.0609 67.2236 16.3701L66.4814 16.8584C66.3382 16.6175 66.1934 16.4352 66.0469 16.3115C65.9004 16.1846 65.7246 16.0853 65.5195 16.0137C65.3145 15.9388 65.0752 15.9014 64.8018 15.9014C64.1247 15.9014 63.6266 16.1276 63.3076 16.5801C62.9919 17.0293 62.834 17.7096 62.834 18.6211C62.834 19.5195 62.9902 20.1982 63.3027 20.6572C63.6152 21.113 64.1182 21.3408 64.8115 21.3408C65.1956 21.3408 65.5293 21.266 65.8125 21.1162C66.0957 20.9632 66.3496 20.7012 66.5742 20.3301L67.3213 20.8184ZM71.0469 16.0576V22H70.1484V16.0576H67.9072V15.2422H73.2881V16.0576H71.0469ZM74.377 22V15.2422H78.5078V16.0576H75.2803V18.0303H78.0391V18.8506H75.2803V21.1797H78.5078V22H74.377ZM85.1533 22V16.3994L83.2832 20.1592H82.7217L80.8711 16.3994V22H80.0117V15.2422H81.2324L83.0244 18.9189L84.8311 15.2422H86.0127V22H85.1533ZM87.1553 22L89.4648 15.2422H90.6367L92.9463 22H91.9941L91.4082 20.2422H88.6543L88.0781 22H87.1553ZM88.9277 19.4219H91.125L90.0264 16.1309L88.9277 19.4219ZM96.7891 22V15.2422H101.491V22H100.593V16.0576H97.6924V22H96.7891ZM107.673 17.4004C107.673 18.2142 107.481 18.8034 107.097 19.168C106.716 19.5293 106.096 19.71 105.236 19.71H104.177V22H103.273V15.2422H105.275C106.118 15.2422 106.729 15.4163 107.106 15.7646C107.484 16.113 107.673 16.6582 107.673 17.4004ZM106.726 17.4199C106.726 16.9479 106.608 16.6029 106.374 16.3848C106.14 16.1667 105.739 16.0576 105.173 16.0576H104.177V18.8896H105.046C105.521 18.8896 105.868 18.8441 106.086 18.7529C106.307 18.6585 106.468 18.5088 106.569 18.3037C106.674 18.0954 106.726 17.8008 106.726 17.4199ZM114.235 18.6211C114.235 19.8353 114.006 20.7256 113.547 21.292C113.091 21.8584 112.404 22.1416 111.486 22.1416C110.555 22.1416 109.864 21.8535 109.411 21.2773C108.962 20.7012 108.737 19.8158 108.737 18.6211C108.737 17.4362 108.96 16.554 109.406 15.9746C109.852 15.3919 110.546 15.1006 111.486 15.1006C112.414 15.1006 113.104 15.3854 113.557 15.9551C114.009 16.5247 114.235 17.4134 114.235 18.6211ZM113.288 18.6211C113.288 17.6868 113.146 17 112.863 16.5605C112.583 16.1211 112.124 15.9014 111.486 15.9014C110.848 15.9014 110.388 16.1211 110.104 16.5605C109.825 17 109.685 17.6868 109.685 18.6211C109.685 19.5618 109.826 20.2503 110.109 20.6865C110.396 21.1227 110.855 21.3408 111.486 21.3408C112.115 21.3408 112.572 21.1243 112.858 20.6914C113.145 20.2585 113.288 19.5684 113.288 18.6211ZM120.847 22V16.3994L118.977 20.1592H118.415L116.564 16.3994V22H115.705V15.2422H116.926L118.718 18.9189L120.524 15.2422H121.706V22H120.847ZM129.182 15.2422H130.08V22H129.182V15.2422ZM123.488 22V15.2422H124.392V17.8301H125.5C126.398 17.8301 127.051 18.001 127.458 18.3428C127.865 18.6813 128.068 19.2233 128.068 19.9688C128.068 20.6816 127.85 21.1992 127.414 21.5215C126.978 21.8405 126.35 22 125.529 22H123.488ZM127.121 19.959C127.121 19.6172 127.067 19.3519 126.96 19.1631C126.853 18.9743 126.68 18.8376 126.442 18.7529C126.208 18.665 125.847 18.6211 125.358 18.6211H124.392V21.209H125.49C126.005 21.209 126.405 21.1146 126.691 20.9258C126.978 20.7337 127.121 20.4115 127.121 19.959ZM138.449 21.209V15.2422H139.348V22H131.857V15.2422H132.761V21.209H135.158V15.2422H136.047V21.209H138.449ZM143.068 16.0283V16.4385C143.068 18.1572 142.88 19.5277 142.502 20.5498C142.124 21.5687 141.595 22.0781 140.915 22.0781C140.703 22.0781 140.503 22.0456 140.314 21.9805L140.476 21.2578C140.547 21.2871 140.62 21.3018 140.695 21.3018C141.19 21.3018 141.558 20.8509 141.799 19.9492C142.043 19.0443 142.165 17.7585 142.165 16.0918V15.2422H145.876V22H144.978V16.0283H143.068ZM147.658 22V15.2422H151.789V16.0576H148.562V18.0303H151.32V18.8506H148.562V21.1797H151.789V22H147.658ZM157.272 22V18.9092H154.196V22H153.293V15.2422H154.196V18.0889H157.272V15.2422H158.176V22H157.272ZM163.933 22V18.9092H160.856V22H159.953V15.2422H160.856V18.0889H163.933V15.2422H164.836V22H163.933ZM171.804 18.6211C171.804 19.8353 171.574 20.7256 171.115 21.292C170.66 21.8584 169.973 22.1416 169.055 22.1416C168.124 22.1416 167.432 21.8535 166.979 21.2773C166.53 20.7012 166.306 19.8158 166.306 18.6211C166.306 17.4362 166.529 16.554 166.975 15.9746C167.421 15.3919 168.114 15.1006 169.055 15.1006C169.982 15.1006 170.673 15.3854 171.125 15.9551C171.577 16.5247 171.804 17.4134 171.804 18.6211ZM170.856 18.6211C170.856 17.6868 170.715 17 170.432 16.5605C170.152 16.1211 169.693 15.9014 169.055 15.9014C168.417 15.9014 167.956 16.1211 167.673 16.5605C167.393 17 167.253 17.6868 167.253 18.6211C167.253 19.5618 167.395 20.2503 167.678 20.6865C167.964 21.1227 168.423 21.3408 169.055 21.3408C169.683 21.3408 170.14 21.1243 170.427 20.6914C170.713 20.2585 170.856 19.5684 170.856 18.6211ZM178.454 20.8184C178.239 21.1634 178.02 21.4255 177.795 21.6045C177.574 21.7803 177.315 21.9137 177.019 22.0049C176.722 22.096 176.374 22.1416 175.974 22.1416C174.961 22.1416 174.214 21.8503 173.732 21.2676C173.254 20.6816 173.015 19.7995 173.015 18.6211C173.015 17.446 173.252 16.5654 173.728 15.9795C174.206 15.3936 174.942 15.1006 175.935 15.1006C176.328 15.1006 176.68 15.1494 176.989 15.2471C177.299 15.3447 177.559 15.4798 177.771 15.6523C177.985 15.8216 178.181 16.0609 178.356 16.3701L177.614 16.8584C177.471 16.6175 177.326 16.4352 177.18 16.3115C177.033 16.1846 176.857 16.0853 176.652 16.0137C176.447 15.9388 176.208 15.9014 175.935 15.9014C175.257 15.9014 174.759 16.1276 174.44 16.5801C174.125 17.0293 173.967 17.7096 173.967 18.6211C173.967 19.5195 174.123 20.1982 174.436 20.6572C174.748 21.113 175.251 21.3408 175.944 21.3408C176.328 21.3408 176.662 21.266 176.945 21.1162C177.229 20.9632 177.482 20.7012 177.707 20.3301L178.454 20.8184ZM182.18 16.0576V22H181.281V16.0576H179.04V15.2422H184.421V16.0576H182.18ZM185.51 22V15.2422H186.369V20.8184L189.221 15.2422H190.52V22H189.66V16.1699L186.643 22H185.51ZM49.2891 33.0713C49.6536 33.7028 50.1712 34.0186 50.8418 34.0186C51.1868 34.0186 51.4749 33.929 51.7061 33.75C51.9404 33.571 52.0576 33.3317 52.0576 33.0322C52.0576 32.7035 51.9746 32.4642 51.8086 32.3145C51.6426 32.1647 51.3691 32.0898 50.9883 32.0898H49.5576V30.9521H51.0615C51.3512 30.9521 51.5726 30.8757 51.7256 30.7227C51.8818 30.5664 51.96 30.3385 51.96 30.0391C51.96 29.7949 51.846 29.598 51.6182 29.4482C51.3903 29.2952 51.1038 29.2188 50.7588 29.2188C50.5049 29.2188 50.2445 29.2594 49.9775 29.3408C49.7139 29.4189 49.4176 29.5752 49.0889 29.8096L48.4004 28.8184C49.0579 28.3398 49.8604 28.1006 50.8076 28.1006C51.3577 28.1006 51.8281 28.1755 52.2188 28.3252C52.6126 28.4749 52.9105 28.6947 53.1123 28.9844C53.3174 29.2708 53.4199 29.6126 53.4199 30.0098C53.4199 30.3906 53.3239 30.7178 53.1318 30.9912C52.943 31.2646 52.7087 31.4502 52.4287 31.5479C53.1481 31.8571 53.5078 32.3617 53.5078 33.0615C53.5078 33.7451 53.2783 34.2627 52.8193 34.6143C52.3604 34.9658 51.7109 35.1416 50.8711 35.1416C50.2526 35.1416 49.722 35.0309 49.2793 34.8096C48.8366 34.585 48.4639 34.2285 48.1611 33.7402L49.2891 33.0713ZM54.0791 35L56.3154 28.2422H58.1074L60.3486 35H58.9375L58.4883 33.6279H55.8857L55.4463 35H54.0791ZM56.2764 32.4219H58.0977L57.1895 29.6289L56.2764 32.4219ZM61.2129 35V28.2422H62.5898V33.7402H64.3623V28.2422H65.7295V33.7402H67.502V28.2422H68.8789V33.7598H69.6602V36.2012H68.2783V35H61.2129ZM70.5293 35V28.2422H71.8184V32.9492L74.3184 28.2422H75.9248V35H74.6357V29.9805L71.999 35H70.5293ZM77.3945 35V28.2422H78.7715V33.7402H80.5439V28.2422H81.9111V33.7402H83.6836V28.2422H85.0605V33.7598H85.8418V36.2012H84.46V35H77.3945ZM86.7109 35V28.2422H91.1006V29.458H88.0879V30.8984H90.627V32.1191H88.0879V33.7402H91.1006V35H86.7109ZM96.3643 35V32.1289H93.7031V35H92.3262V28.2422H93.7031V30.8691H96.3643V28.2422H97.7461V35H96.3643ZM103.249 35V32.1289H100.588V35H99.2109V28.2422H100.588V30.8691H103.249V28.2422H104.631V35H103.249ZM105.495 35L107.731 28.2422H109.523L111.765 35H110.354L109.904 33.6279H107.302L106.862 35H105.495ZM107.692 32.4219H109.514L108.605 29.6289L107.692 32.4219ZM112.058 35L113.864 32.2803C113.425 32.1924 113.081 31.9775 112.834 31.6357C112.59 31.2907 112.468 30.8285 112.468 30.249C112.468 29.5361 112.666 29.0234 113.063 28.7109C113.464 28.3984 114.102 28.2422 114.978 28.2422H117.438V35H116.057V32.4414H115.358L113.635 35H112.058ZM113.864 30.3076C113.864 30.5648 113.9 30.7552 113.972 30.8789C114.047 31.0026 114.167 31.0938 114.333 31.1523C114.499 31.2109 114.737 31.2402 115.046 31.2402H116.057V29.4385H114.987C114.587 29.4385 114.299 29.4971 114.123 29.6143C113.951 29.7314 113.864 29.9626 113.864 30.3076ZM120.998 28.2422H122.38V29.9805C122.38 30.4036 122.406 30.7113 122.458 30.9033C122.513 31.0921 122.606 31.2272 122.736 31.3086C122.87 31.39 123.073 31.4307 123.347 31.4307C123.858 31.4307 124.325 31.377 124.748 31.2695V28.2422H126.13V35H124.748V32.4902C124.227 32.6237 123.69 32.6904 123.137 32.6904C122.567 32.6904 122.132 32.6204 121.833 32.4805C121.537 32.3372 121.324 32.1077 121.193 31.792C121.063 31.473 120.998 31.0352 120.998 30.4785V28.2422ZM126.989 35L129.226 28.2422H131.018L133.259 35H131.848L131.398 33.6279H128.796L128.356 35H126.989ZM129.187 32.4219H131.008L130.1 29.6289L129.187 32.4219ZM139.523 33.8818C139.234 34.3148 138.877 34.6338 138.454 34.8389C138.034 35.0407 137.517 35.1416 136.901 35.1416C134.808 35.1416 133.762 33.9681 133.762 31.6211C133.762 30.4199 134.027 29.5329 134.558 28.96C135.088 28.387 135.853 28.1006 136.853 28.1006C137.513 28.1006 138.052 28.2129 138.469 28.4375C138.885 28.6589 139.203 28.9502 139.421 29.3115L138.352 30.1416C138.195 29.9072 138.052 29.738 137.922 29.6338C137.792 29.5296 137.644 29.4515 137.478 29.3994C137.312 29.3473 137.113 29.3213 136.882 29.3213C136.328 29.3213 135.907 29.4987 135.617 29.8535C135.327 30.2051 135.183 30.7943 135.183 31.6211C135.183 32.3926 135.318 32.9688 135.588 33.3496C135.861 33.7305 136.296 33.9209 136.892 33.9209C137.292 33.9209 137.603 33.8444 137.824 33.6914C138.049 33.5384 138.252 33.335 138.435 33.0811L139.523 33.8818ZM143.435 29.502V35H142.058V29.502H139.978V28.2422H145.515V29.502H143.435ZM146.418 35V28.2422H147.795V30.6396H148.835C149.769 30.6396 150.441 30.8154 150.852 31.167C151.262 31.5153 151.467 32.0492 151.467 32.7686C151.467 33.5433 151.252 34.1097 150.822 34.4678C150.393 34.8226 149.72 35 148.806 35H146.418ZM150.046 32.7686C150.046 32.4235 149.943 32.181 149.738 32.041C149.536 31.901 149.213 31.8311 148.767 31.8311H147.795V33.7891H148.767C149.187 33.7891 149.504 33.7093 149.719 33.5498C149.937 33.3903 150.046 33.1299 150.046 32.7686Z" fill="#F3F3F3"/>
<defs>
<clipPath id="clip0_107_13865">
<rect width="36" height="35" fill="white" transform="translate(0 0.5)"/>
</clipPath>
</defs>
</svg>
